PathFileType	4	(X/Y/Z)	SUBJ36_3_walk_RCNL2025.trc
DataRate	CameraRate	NumFrames	NumMarkers	Units	OrigDataRate	OrigDataStartFrame	OrigNumFrames
100	100	13	25	mm	100	259	344
Frame#	Time	R_Shoulder			L_Shoulder			C7			J_Notch			R_Elbow			L_Elbow			R_Wrist			L_Wrist			R_Asis			L_Asis			Sacral			Thoracic			Sternum			R_Thigh_Lateral			R_Knee_Lateral			R_Shank_Lateral			R_Ankle_Lateral			R_Heel			R_Toe			L_Thigh_Lateral			L_Knee_Lateral			L_Shank_Lateral			L_Ankle_Lateral			L_Heel			L_Toe		
		X1	Y1	Z1	X2	Y2	Z2	X3	Y3	Z3	X4	Y4	Z4	X5	Y5	Z5	X6	Y6	Z6	X7	Y7	Z7	X8	Y8	Z8	X9	Y9	Z9	X10	Y10	Z10	X11	Y11	Z11	X12	Y12	Z12	X13	Y13	Z13	X14	Y14	Z14	X15	Y15	Z15	X16	Y16	Z16	X17	Y17	Z17	X18	Y18	Z18	X19	Y19	Z19	X20	Y20	Z20	X21	Y21	Z21	X22	Y22	Z22	X23	Y23	Z23	X24	Y24	Z24	X25	Y25	Z25
259	2.58000000	487.592407	1336.785767	340.993988	450.736115	1297.827515	-2.709604	405.750397	1388.935425	184.169205	543.696228	1280.385376	174.203369	448.152954	1021.532166	434.918915	354.729980	994.965820	-39.172173	616.487549	846.293335	427.247208	405.632782	766.557648	-62.103935	537.113892	891.818359	309.986511	536.343201	888.324524	82.258736	316.547119	883.052795	190.085068	326.580017	1132.507935	204.188599	576.524780	1100.725220	187.897156	324.778656	513.771240	352.328552	307.073914	455.289581	302.283844	188.593323	276.428802	334.271240	117.236580	121.904472	259.097351	63.983032	124.850983	214.842575	211.549698	47.038128	221.844330	571.630127	497.459167	21.188372	613.109009	443.562866	91.716446	640.604614	234.863663	68.986511	679.364868	74.875183	145.905106	649.213135	42.310764	203.531982	811.228821	65.180275	160.451157
260	2.59000000	500.302277	1336.469116	340.419678	463.200348	1297.130127	-3.271633	418.355560	1388.689331	183.524384	556.431519	1280.357178	173.506454	460.320587	1021.217346	434.481415	367.309753	994.197937	-39.288765	625.815277	843.295959	428.283447	418.290833	765.811737	-62.018480	550.603455	890.403381	309.462494	549.485535	888.750854	82.027252	329.697815	883.074524	190.057983	339.665833	1132.174927	204.070374	589.814453	1100.821289	187.349579	337.722473	512.610107	352.062073	320.160217	454.141388	302.545837	196.829666	278.798279	334.786041	122.133270	125.616501	260.057098	69.618484	130.464844	215.439499	213.104752	46.454967	222.005936	588.924805	500.644714	20.715561	627.849426	444.869934	91.958282	650.483826	235.858963	69.212601	682.551941	74.710670	146.366486	650.706482	43.047009	203.744186	813.714661	60.815441	161.313492
261	2.60000000	513.190613	1336.354248	339.815338	475.765991	1296.651367	-3.810985	431.108795	1388.699707	182.896164	569.244812	1280.534546	172.788223	472.491608	1021.173523	434.031403	380.111694	993.645508	-39.439018	634.741425	840.286194	429.295441	431.230438	765.281494	-61.882690	563.985474	889.164062	308.865723	562.535339	889.663696	81.751839	342.809296	883.357971	190.165009	352.762817	1132.129150	204.031937	603.157532	1101.145142	186.750671	351.536926	511.160187	351.785400	334.235962	452.716675	302.857483	205.990799	281.246857	335.333466	127.843964	129.552536	261.028076	76.258766	136.499283	215.985687	214.838058	45.820747	222.128876	606.632019	504.687744	19.955189	642.670532	446.541412	91.969902	660.263123	237.007645	68.901382	685.072693	74.745293	146.557449	651.663269	43.836273	203.718475	815.499084	57.264801	161.941574
262	2.61000000	526.224426	1336.450806	339.188690	488.403900	1296.442261	-4.315181	443.948822	1388.943359	182.316376	582.100159	1280.902466	172.072617	484.640564	1021.425659	433.573975	393.141083	993.348999	-39.619560	643.248901	837.322784	430.266571	444.476456	765.016754	-61.712559	577.193359	888.124329	308.210938	575.482666	891.015625	81.446350	355.849548	883.866089	190.391953	365.834686	1132.347900	204.076645	616.496338	1101.670654	186.112091	366.282806	509.376740	351.537537	349.363953	450.983887	303.231812	216.198090	283.752991	335.929230	134.487946	133.733719	262.027435	84.011650	142.997528	216.529465	216.795227	45.225811	222.219391	624.420044	509.196442	18.981016	657.166504	448.304535	91.814369	669.720703	238.031708	68.189720	687.075317	74.882607	146.574036	652.269775	44.590004	203.553421	816.776794	54.585773	162.434937
263	2.62000000	539.349792	1336.749390	338.553253	501.084625	1296.534424	-4.775332	456.809845	1389.385498	181.809311	594.962219	1281.436279	171.386093	496.731537	1021.966919	433.113403	406.381805	993.328674	-39.823875	651.344971	834.466797	431.205231	458.054413	765.053192	-61.527365	590.171265	887.283936	307.514160	588.319946	892.708069	81.122437	368.772583	884.528381	190.691528	378.848816	1132.799316	204.189316	629.768433	1102.354370	185.449112	381.994507	507.224976	351.360535	365.572632	448.920135	303.672211	227.558640	286.288483	336.589172	142.164734	138.186905	263.079285	92.945236	149.996643	217.142593	219.049805	44.812984	222.299927	641.708618	513.628540	17.925016	670.835327	449.895020	91.556137	678.540039	238.744171	67.271370	688.668823	75.045670	146.500046	652.653015	45.249477	203.336151	817.685242	52.706589	162.828125
264	2.63000000	552.497925	1337.223267	337.931824	513.783875	1296.935181	-5.184025	469.640381	1389.991943	181.388901	607.797485	1282.106445	170.757965	508.716675	1022.759827	432.653839	419.799438	993.581543	-40.044693	659.053345	831.776001	432.142792	471.977676	765.403107	-61.340944	602.877319	886.623657	306.791931	601.031738	894.613037	80.778374	381.523987	885.261230	190.992691	391.774658	1133.451294	204.338058	642.913818	1103.146118	184.781189	398.670197	504.698425	351.289673	382.853943	446.522827	304.175049	240.162277	288.824097	337.331360	150.938934	142.952271	264.207581	103.082664	157.519836	217.897949	221.718109	44.776459	222.412720	657.729004	517.435181	16.910439	683.202637	451.117584	91.229286	686.383179	239.081757	66.338020	689.929016	75.187485	146.400040	652.894104	45.784847	203.130325	818.318298	51.484348	163.130127
265	2.64000000	565.595215	1337.835327	337.356232	526.486816	1297.626709	-5.533713	482.410889	1390.735718	181.059799	620.576172	1282.883423	170.218597	520.539062	1023.745117	432.200775	433.348358	994.083801	-40.275478	666.407715	829.295044	433.122910	486.240601	766.052856	-61.157164	615.286377	886.117004	306.062622	613.592468	896.599304	80.399544	394.052185	885.993896	191.216568	404.582092	1134.277100	204.480713	655.882812	1104.000000	184.131866	416.266205	501.838104	351.344818	401.163696	443.825806	304.734894	254.072647	291.338745	338.172333	160.835052	148.086166	265.426300	114.408386	165.560318	218.842560	224.976913	45.342522	222.620636	671.718567	520.198730	15.998384	693.945190	451.866364	90.835175	692.987122	239.085754	65.532021	690.908813	75.285965	146.319687	653.042236	46.191044	202.971542	818.747742	50.757862	163.360168
266	2.65000000	578.572632	1338.545776	336.863495	539.189575	1298.570190	-5.815845	495.110626	1391.598755	180.821304	633.275391	1283.739258	169.795334	532.140625	1024.855225	431.761627	446.981354	994.797058	-40.512669	673.446442	827.043976	434.181381	500.820557	766.966644	-60.970892	627.390015	885.743713	305.347748	625.972717	898.552246	79.967850	406.319672	886.690002	191.292175	417.243286	1135.257080	204.571228	668.642151	1104.880615	183.527405	434.695557	498.742737	351.524597	420.425110	440.914001	305.348511	269.309448	293.835144	339.117279	171.849380	153.648163	266.730255	126.884216	174.058090	219.975067	229.081253	46.727192	223.003433	683.182312	521.708557	15.188528	702.964050	452.117676	90.362907	698.238220	238.856537	64.925041	691.650146	75.335800	146.285858	653.127686	46.482174	202.871231	819.031799	50.376198	163.541199
267	2.66000000	591.373413	1339.318970	336.489044	551.897827	1299.714844	-6.021320	507.739380	1392.569214	180.671936	645.879700	1284.650146	169.509476	543.470886	1026.026245	431.345062	460.659882	995.677673	-40.759293	680.204376	825.016205	435.330048	515.684296	768.094940	-60.770048	639.194092	885.500977	304.671875	638.148865	900.385498	79.471611	418.309174	887.357910	191.167023	429.735748	1136.375854	204.565674	681.176086	1105.767700	182.995255	453.829193	495.565277	351.804901	440.534973	437.927063	306.015289	285.830383	296.354919	340.149353	183.976776	159.670929	268.090118	140.468475	182.878418	221.236664	234.371429	49.078182	223.648911	692.067688	521.977112	14.454573	710.379639	451.913727	89.809906	702.186096	238.504990	64.525002	692.194397	75.344810	146.306229	653.171387	46.684105	202.824738	819.215820	50.208973	163.684326
268	2.67000000	603.956787	1340.127808	336.259216	564.622314	1301.007324	-6.142789	520.298889	1393.638672	180.610428	658.378235	1285.597168	169.374771	554.493652	1027.207520	430.961060	474.359344	996.685242	-41.026249	686.704193	823.191650	436.556625	530.794098	769.385864	-60.537054	650.714722	885.409668	304.058289	650.108826	902.045532	78.909584	430.024353	888.047485	190.812698	442.042999	1137.620117	204.429352	693.484192	1106.654663	182.563477	473.501007	492.497253	352.144165	461.369690	435.046570	306.735199	303.527130	298.978699	341.229889	197.236374	166.125778	269.453644	155.128799	191.805267	222.519745	241.254105	52.426102	224.641830	698.740723	521.212036	13.771209	716.461182	451.348389	89.189270	705.004822	238.121109	64.300865	692.588745	75.330399	146.372894	653.190430	46.827164	202.818649	819.334778	50.153259	163.793854
269	2.68000000	616.298157	1340.954712	336.186981	577.373291	1302.401855	-6.176743	532.787537	1394.799438	180.632721	670.761292	1286.567627	169.396942	565.186951	1028.367065	430.620544	488.067932	997.787109	-41.329010	692.957062	821.552399	437.837738	546.112427	770.795593	-60.250881	661.977051	885.514038	303.520020	661.852356	903.510498	78.288567	441.486420	888.833313	190.226517	454.153748	1138.975708	204.141418	705.572815	1107.543579	182.262589	493.522217	489.739960	352.495514	482.794128	432.467438	307.509796	322.243103	301.801117	342.309326	211.675613	172.902176	270.754089	170.845383	200.558014	223.690887	250.151077	56.669811	226.057846	703.802490	519.746582	13.122094	721.535095	450.552429	88.528336	706.934875	237.765121	64.208580	692.883911	75.312912	146.470078	653.199402	46.940472	202.836868	819.416199	50.136921	163.876114
270	2.69000000	628.385742	1341.790894	336.271515	590.155273	1303.863770	-6.123379	545.198792	1396.042603	180.729630	683.019714	1287.554077	169.573776	575.539185	1029.493408	430.332275	501.782562	998.959717	-41.683727	698.968353	820.091064	439.151245	561.606293	772.294556	-59.890776	673.014038	885.873413	303.052917	673.389404	904.784546	77.618668	452.728027	889.788818	189.429672	466.063354	1140.427246	203.693771	717.446960	1108.437500	182.125977	513.711243	487.465576	352.819763	504.675354	430.363495	308.342682	341.809998	304.886200	343.337555	227.350662	179.812347	271.924133	187.610016	208.827042	224.620224	261.425751	61.596134	227.964371	707.890320	517.951233	12.501748	725.914185	449.669281	87.864357	708.236328	237.470169	64.206055	693.126404	75.309898	146.581573	653.209290	47.048027	202.864212	819.480347	50.115726	163.939758
271	2.70000000	640.218628	1342.633179	336.499847	602.964905	1305.370605	-5.985878	557.522034	1397.358276	180.888107	695.145630	1288.553589	169.895828	585.544556	1030.590210	430.098114	515.505554	1000.188660	-42.105457	704.741730	818.809113	440.479111	577.251404	773.869934	-59.441557	683.863892	886.546997	302.636902	684.737427	905.891907	76.909218	463.785004	890.960449	188.462982	477.775146	1141.959106	203.086685	729.110107	1109.337524	182.182648	533.932373	485.785065	353.096680	526.897217	428.860382	309.236694	362.086761	308.227753	344.267212	244.303329	186.616089	272.913208	205.424072	216.314713	225.211151	275.309875	66.916245	230.417862	711.559998	516.160217	11.914704	729.860840	448.824280	87.237061	709.159302	237.247147	64.257637	693.350464	75.332611	146.693542	653.226257	47.166454	202.887360	819.540771	50.068356	163.993301
